<svg xmlns="http://www.w3.org/2000/svg" viewBox="0 0 303.02 65.54"><defs><style>.cls-1{fill:#009fe3;}.cls-1,.cls-2,.cls-3{fill-rule:evenodd;}.cls-2{fill:#83d0f5;}.cls-3{fill:#312783;}</style></defs><title>logo</title><g id="katman_2" data-name="katman 2"><g id="Layer_1" data-name="Layer 1"><path class="cls-1" d="M43.59,13.68a32.17,32.17,0,0,1-5.8,10.92c-7.74-3.31-16-4.78-25.65-1.79A57.68,57.68,0,0,0,36.82,63l-3.76,2.54A71,71,0,0,1,.72,16.37,57.41,57.41,0,0,1,43.59,13.68Z"/><path class="cls-2" d="M39.64,43.25a32.13,32.13,0,0,1-6.56-10.48c6.74-5.05,12.15-11.47,14.38-21.32A57.66,57.66,0,0,0,.31,12.73L0,8.2A71,71,0,0,1,58.75,4.78,57.39,57.39,0,0,1,39.64,43.25Z"/><path class="cls-3" d="M16,25a32.2,32.2,0,0,1,12.35-.44c1,8.37,3.87,16.26,11.28,23.12A57.73,57.73,0,0,0,62.11,6.25l4.07,2A71,71,0,0,1,39.77,60.83,57.38,57.38,0,0,1,16,25Z"/><path class="cls-3" d="M82.67,27l-4,15a3.31,3.31,0,0,0-.07,2.17c.21.46.7.69,1.45.69a2.57,2.57,0,0,0,1.81-.67,4.81,4.81,0,0,0,1.09-2.19l4-15A3.25,3.25,0,0,0,87,24.77a1.45,1.45,0,0,0-1.45-.7,2.42,2.42,0,0,0-1.78.69A4.77,4.77,0,0,0,82.67,27Zm-7.36,1.13A13.25,13.25,0,0,1,79.54,21a11.6,11.6,0,0,1,7.53-2.4c3.07,0,5.15.8,6.26,2.39s1.23,4,.38,7.14l-3.4,12.7A13.39,13.39,0,0,1,86.09,48a11.53,11.53,0,0,1-7.54,2.4q-4.56,0-6.24-2.41c-1.12-1.61-1.25-4-.41-7.16Z"/><polygon class="cls-3" points="91.14 49.89 99.43 18.98 106.41 18.98 99.75 43.83 107.39 43.83 105.76 49.89 91.14 49.89"/><path class="cls-3" d="M107.78,49.89,116.06,19h7l-8.28,30.91Zm10-32.88,1.38-5.17h4.71L122.46,17Z"/><path class="cls-3" d="M118.32,49.89,126.6,19h10.75l-1.22,9.79c-.16,1.26-.35,2.56-.58,3.89l-.86,4.41c.16-.63.36-1.28.58-1.94l1-2.87a12.46,12.46,0,0,1,.4-1.26c.14-.39.41-1,.82-1.94L141.82,19h10.72l-8.29,30.91h-6.67l3-11.31c.21-.77.53-2,1-3.59s.77-2.86,1-3.73.59-2.1,1.1-3.81.88-3,1.13-3.92l-2.86,6.73-1.5,3.49-7,16.14h-4.39l1.5-15.43.64-5.92.67-5-1.72,7.14-2.05,7.8L125,49.89Z"/><path class="cls-3" d="M147.82,49.89,156.1,19H166c2.81,0,4.74.64,5.77,1.93s1.21,3.25.5,5.89l-.81,3a10.93,10.93,0,0,1-3.48,5.8,9.25,9.25,0,0,1-6.06,2h-3.87l-3.27,12.24Zm11.74-17.75.33,0h.55a4.81,4.81,0,0,0,2.78-.68,3.76,3.76,0,0,0,1.39-2.22l.48-1.81a2.44,2.44,0,0,0-.18-2.3,3.66,3.66,0,0,0-2.64-.68h-.66Z"/><path class="cls-3" d="M168.71,49.89,177,19h7L175.7,49.89Zm10-32.88,1.38-5.17h4.71L183.39,17Z"/><path class="cls-3" d="M179.25,49.89,187.54,19h6.9l-3.59,13.41a4.78,4.78,0,0,1,.25-.68c.11-.25.24-.51.39-.79.26-.5.52-1,.78-1.37L199,19h7.41l-9.76,12.93,1.51,18h-7.33l-.21-11.46-2.17,2.77-2.33,8.69Z"/><path class="cls-3" d="M220.69,49.89l.57-2.39a10.3,10.3,0,0,1-3,2.11,8.18,8.18,0,0,1-3.38.74c-2.07,0-3.41-.81-4-2.42s-.51-4,.33-7.15l3.41-12.7A13.25,13.25,0,0,1,218.81,21a11.6,11.6,0,0,1,7.53-2.4c3.07,0,5.15.8,6.26,2.39s1.23,4,.38,7.15l-.39,1.47h-7.06l.69-2.61a3.25,3.25,0,0,0,.06-2.18,1.45,1.45,0,0,0-1.45-.7,2.42,2.42,0,0,0-1.78.69A4.77,4.77,0,0,0,221.94,27l-4,15a3.39,3.39,0,0,0-.08,2.17,1.45,1.45,0,0,0,1.46.69,2.53,2.53,0,0,0,1.8-.67,4.72,4.72,0,0,0,1.1-2.19l.93-3.46h-2.39l1.52-5.68h9.45l-4.58,17.1Z"/><path class="cls-3" d="M229.45,49.89l14-30.91h9.38l-2.64,30.91h-7.45l.79-5.56H238.7l-2.19,5.56ZM241,38.74h3.35l1.46-9.45.31-2,.6-3.28-1,2.59-1.06,2.75Z"/><path class="cls-3" d="M251.84,49.89,260.13,19h10.74l-1.21,9.79c-.16,1.26-.36,2.56-.59,3.89l-.86,4.41c.17-.63.36-1.28.59-1.94.05-.17.4-1.12,1-2.87.12-.45.26-.87.4-1.26s.41-1,.82-1.94L275.35,19h10.71l-8.28,30.91H271.1l3-11.31c.21-.77.53-2,1-3.59s.77-2.86,1-3.73.59-2.1,1.1-3.81.89-3,1.13-3.92l-2.86,6.73L274,33.75l-7,16.14h-4.39l1.49-15.43.65-5.92.66-5-1.72,7.14-2.05,7.8-3.06,11.42Z"/><path class="cls-3" d="M279.64,49.89l14-30.91H303l-2.65,30.91h-7.44l.79-5.56H288.9l-2.19,5.56ZM291.2,38.74h3.36L296,29.29l.32-2,.59-3.28L296,26.58l-1.06,2.75Z"/></g></g></svg>